<svg width="22" height="20" viewBox="0 0 22 20" fill="none" xmlns="http://www.w3.org/2000/svg">
<path d="M7.96173 16.9109L8.49238 16.2377L7.96173 16.9109ZM11 3.50063L10.3824 4.09503C10.544 4.26291 10.767 4.35778 11 4.35778C11.233 4.35778 11.456 4.26291 11.6176 4.09503L11 3.50063ZM14.0383 16.9109L14.5689 17.584L14.5689 17.584L14.0383 16.9109ZM7.96173 16.9109L8.49238 16.2377C6.97036 15.0379 5.32491 13.8798 4.0184 12.4086C2.74127 10.9705 1.85714 9.30106 1.85714 7.1371H1H0.142857C0.142857 9.83607 1.26844 11.8938 2.73661 13.547C4.17538 15.1671 6.0108 16.4644 7.43109 17.584L7.96173 16.9109ZM1 7.1371H1.85714C1.85714 5.02632 3.0497 3.26178 4.6689 2.52164C6.23407 1.8062 8.35189 1.98536 10.3824 4.09503L11 3.50063L11.6176 2.90623C9.14827 0.340732 6.26609 -0.0933343 3.95622 0.962515C1.70038 1.99367 0.142857 4.38495 0.142857 7.1371H1ZM7.96173 16.9109L7.43109 17.584C7.94234 17.987 8.49799 18.4224 9.06277 18.7524C9.62727 19.0823 10.2824 19.3571 11 19.3571V18.5V17.6429C10.7176 17.6429 10.3727 17.5324 9.92767 17.2723C9.48288 17.0124 9.01939 16.6532 8.49238 16.2377L7.96173 16.9109ZM14.0383 16.9109L14.5689 17.584C15.9892 16.4644 17.8246 15.1671 19.2634 13.547C20.7316 11.8938 21.8571 9.83607 21.8571 7.1371H21H20.1429C20.1429 9.30106 19.2587 10.9705 17.9816 12.4086C16.6751 13.8798 15.0296 15.0379 13.5076 16.2377L14.0383 16.9109ZM21 7.1371H21.8571C21.8571 4.38495 20.2996 1.99367 18.0438 0.962515C15.7339 -0.0933343 12.8517 0.340732 10.3824 2.90623L11 3.50063L11.6176 4.09503C13.6481 1.98536 15.7659 1.8062 17.3311 2.52164C18.9503 3.26178 20.1429 5.02632 20.1429 7.1371H21ZM14.0383 16.9109L13.5076 16.2377C12.9806 16.6532 12.5171 17.0124 12.0723 17.2723C11.6273 17.5324 11.2824 17.6429 11 17.6429V18.5V19.3571C11.7176 19.3571 12.3727 19.0823 12.9372 18.7524C13.502 18.4224 14.0577 17.987 14.5689 17.584L14.0383 16.9109Z" fill="#161117"/>
</svg>
