<svg width="19" height="19" viewBox="0 0 19 19" fill="none" xmlns="http://www.w3.org/2000/svg">
<path d="M14.5785 2.9707H4.42159C3.39559 2.9707 2.88259 2.9707 2.56385 3.26975C2.24512 3.56879 2.24512 4.0501 2.24512 5.01271V5.51317C2.24512 6.26611 2.24512 6.64258 2.43345 6.95467C2.62179 7.26676 2.96587 7.46046 3.65403 7.84784L5.7674 9.03753C6.22912 9.29744 6.45998 9.4274 6.62527 9.57091C6.9695 9.86975 7.18141 10.2209 7.27744 10.6516C7.32355 10.8584 7.32355 11.1004 7.32355 11.5844L7.32355 13.5211C7.32355 14.181 7.32355 14.5109 7.50632 14.7681C7.68909 15.0253 8.0137 15.1522 8.66292 15.406C10.0258 15.9388 10.7073 16.2052 11.1919 15.9021C11.6765 15.599 11.6765 14.9064 11.6765 13.5211V11.5844C11.6765 11.1004 11.6765 10.8584 11.7226 10.6516C11.8186 10.2209 12.0305 9.86975 12.3748 9.57091C12.5401 9.4274 12.7709 9.29744 13.2326 9.03753L15.346 7.84784C16.0342 7.46046 16.3782 7.26676 16.5666 6.95467C16.7549 6.64258 16.7549 6.26611 16.7549 5.51317V5.01271C16.7549 4.0501 16.7549 3.56879 16.4362 3.26975C16.1174 2.9707 15.6044 2.9707 14.5785 2.9707Z" stroke="#5F5F5F" stroke-width="1.08824"/>
<line x1="4.10954" y1="7.96611" x2="11.3644" y2="2.88767" stroke="#5F5F5F" stroke-width="1.08824"/>
</svg>
