<svg width="21" height="21" viewBox="0 0 21 21" fill="none" xmlns="http://www.w3.org/2000/svg">
<path fill-rule="evenodd" clip-rule="evenodd" d="M10.2357 0.394991L7.76269 3.36255H3.66295C3.20118 3.36255 2.84992 3.7772 2.92584 4.23269L3.40355 7.09896L0.777938 10.2497C0.509982 10.5712 0.558351 11.0501 0.885192 11.3116L3.40355 13.3263V16.9382C3.40355 17.3509 3.73812 17.6854 4.15083 17.6854H7.76269L9.6701 20.0697C9.96926 20.4437 10.538 20.4437 10.8372 20.0697L12.7446 17.6854H16.9792C17.3919 17.6854 17.7264 17.3509 17.7264 16.9382V13.3263L20.2448 11.3116C20.5716 11.0501 20.62 10.5712 20.3521 10.2497L17.7264 7.09896V4.10984C17.7264 3.69712 17.3919 3.36255 16.9792 3.36255H13.3673L11.4315 0.458872C11.1544 0.0432506 10.5554 0.0112532 10.2357 0.394991ZM12.7445 7.09863L6.51715 14.5714L7.47394 15.3688L13.7013 7.89596L12.7445 7.09863ZM10.2536 7.09893C10.2536 7.78678 9.69597 8.34439 9.00812 8.34439C8.32026 8.34439 7.76265 7.78678 7.76265 7.09893C7.76265 6.41107 8.32026 5.85346 9.00812 5.85346C9.69597 5.85346 10.2536 6.41107 10.2536 7.09893ZM12.7442 15.8169C13.4321 15.8169 13.9897 15.2593 13.9897 14.5714C13.9897 13.8835 13.4321 13.3259 12.7442 13.3259C12.0564 13.3259 11.4987 13.8835 11.4987 14.5714C11.4987 15.2593 12.0564 15.8169 12.7442 15.8169Z" fill="white"/>
</svg>
